<?xml version="1.0" encoding="utf-8"?>
<!-- Generator: Adobe Illustrator 18.1.1, SVG Export Plug-In . SVG Version: 6.00 Build 0)  -->
<svg version="1.1" id="Layer_1" xmlns="http://www.w3.org/2000/svg" xmlns:xlink="http://www.w3.org/1999/xlink" x="0px" y="0px"
	 viewBox="0 0 216 216" enable-background="new 0 0 216 216" xml:space="preserve">
<rect x="-0.5" y="-0.6" fill="#EF3825" width="216.5" height="216.6"/>
<g>
	<path fill="#010101" d="M62.6,105c-12.5,0-17.6-5.7-26.3-5.7c-4,0-5.4,2.8-5.4,3.8l-1,0.1V69.6H31c1.6,8,12.9,34.1,30.6,34.1
		c7.4,0,13.6-4.6,13.6-12.3C75.1,67.1,30,80.2,30,49C30,35.8,42.9,24,59.5,24c9.6,0,13.4,4.2,19.1,4.2c5.5,0,7.2-2.6,7.2-4.4
		l0.9,0.1V53l-1.1-0.1c-0.8-10-9.9-27.7-24.2-27.7c-7.1,0-11.8,4.4-11.8,11.7c0,23.6,44.1,6.4,44.1,42.1
		C93.8,93.5,80.9,105,62.6,105z"/>
</g>
<g>
	<path fill="#010101" d="M108,191.5H63.7v-1.2h5.7c2.5,0,3.9-1.5,3.9-4c0-0.8-0.1-1.6-0.4-2.6l-7.7-24.5H44.6l-3.3,11
		c-0.9,3.1-1.3,5.7-1.3,8.1c0,8,4.9,12.1,10.4,12.1h3.4v1.2H21.7v-1.2h1.8c8,0,13.7-12.3,16.8-22.2l16.9-53.8h17.7l23.9,72.2
		c1,2.7,2.8,3.7,5.4,3.7h3.7V191.5z M64.9,157.7l-10.1-31.1L45,157.7H64.9z"/>
</g>
<g>
	<path fill="#010101" d="M191.8,115.5h-1.3c-5,0-9.1,7.3-12.5,20c0,0-2,8-14.1,56h-12.4c-5.2-21.1-8.7-35.9-11.4-46.4l-12.2,46.4
		h-11.9c-18.1-69.8-18.9-72.3-18.9-72.3c-0.7-2.5-1.9-3.6-4.1-3.6h-2v-1.2h34.1v1.2h-1.3c-2.2,0-3.6,1.2-3.6,3.4
		c0,0.5,0.1,1,0.2,1.4c0,0,0.9,3,12.9,46.5l6.2-24.8c-4.6-19.3-5-21-5-21c-1-3.8-2.6-5.4-4.2-5.4h-1.7v-1.2h34.2v1.2h-1.9
		c-2.3,0-3.5,1-3.5,3c0,0.2,0,0.5,0,0.7c0,0,0.3,2.4,11.3,48.1c5.5-20.7,8-31.4,8-31.4c1-3.7,1.4-7,1.4-9.9c0-6.8-2.7-10.6-6.6-10.6
		h-2.8v-1.2h23v1.1H191.8z"/>
</g>
<g>
	<path fill="#010101" d="M191.8,103h-41.1v-1.2h2c2.4,0,7.3-1.7,7.3-7V61.6h-24.6v33.2c0,5.2,3.5,6.9,6.2,6.9h2.8v1.2h-41.2v-1.2
		h2.1c2.4,0,7.2-1.7,7.2-7V34.8c0-4.6-2.7-7.7-7-7.7h-2.3v-1.2h41.2v1.2h-2.2c-3.7,0-6.8,3.3-6.8,7.7v25.3H160V34.8
		c0-4.6-2.7-7.7-7-7.7h-2.3v-1.2h41.1v1.2h-2.1c-3.7,0-6.9,3.3-6.9,7.7v60c0,5.2,3.6,6.9,6.2,6.9h2.8L191.8,103L191.8,103z"/>
</g>
</svg>
